STARTFONT 2.1
FONT prop
SIZE 12 96 96
FONTBOUNDINGBOX 9 12 0 -2
COMMENT "Generated by fontforge, http://fontforge.sourceforge.net"
COMMENT "FontForge: Set Ascent to 1536 and Descent to 512"
COMMENT "height: 9 pixels, x-height: 6 pixels, proportional"
STARTPROPERTIES 7
CHARSET_REGISTRY "ISO8859"
CHARSET_ENCODING "1"
POINT_SIZE 12
RESOLUTION_X 96
RESOLUTION_Y 96
FONT_ASCENT 12
FONT_DESCENT 4
ENDPROPERTIES
CHARS 95
STARTCHAR char32
ENCODING 32
SWIDTH 768 0
DWIDTH 6 0
BBX 0 0 0 0
BITMAP
ENDCHAR
STARTCHAR char33
ENCODING 33
SWIDTH 125 0
DWIDTH 2 0
BBX 1 9 0 0
BITMAP
80
80
80
80
80
80
80
00
80
ENDCHAR
STARTCHAR char34
ENCODING 34
SWIDTH 250 0
DWIDTH 4 0
BBX 3 3 0 6
BITMAP
A0
A0
A0
ENDCHAR
STARTCHAR char35
ENCODING 35
SWIDTH 375 0
DWIDTH 6 0
BBX 5 5 0 2
BITMAP
50
F8
50
F8
50
ENDCHAR
STARTCHAR char36
ENCODING 36
SWIDTH 375 0
DWIDTH 6 0
BBX 5 10 0 0
BITMAP
20
20
70
A0
F0
28
A8
70
20
20
ENDCHAR
STARTCHAR char37
ENCODING 37
SWIDTH 500 0
DWIDTH 8 0
BBX 7 7 0 1
BITMAP
42
A4
48
10
24
4A
84
ENDCHAR
STARTCHAR char38
ENCODING 38
SWIDTH 500 0
DWIDTH 8 0
BBX 7 9 0 0
BITMAP
20
50
50
20
50
8A
84
8A
70
ENDCHAR
STARTCHAR char39
ENCODING 39
SWIDTH 187 0
DWIDTH 3 0
BBX 2 2 0 8
BITMAP
40
80
ENDCHAR
STARTCHAR char40
ENCODING 40
SWIDTH 250 0
DWIDTH 4 0
BBX 3 11 0 -2
BITMAP
20
40
80
80
80
80
80
80
80
40
20
ENDCHAR
STARTCHAR char41
ENCODING 41
SWIDTH 250 0
DWIDTH 4 0
BBX 3 11 0 -2
BITMAP
80
40
20
20
20
20
20
20
20
40
80
ENDCHAR
STARTCHAR char42
ENCODING 42
SWIDTH 375 0
DWIDTH 6 0
BBX 5 5 0 2
BITMAP
20
A8
70
A8
20
ENDCHAR
STARTCHAR char43
ENCODING 43
SWIDTH 375 0
DWIDTH 6 0
BBX 5 5 0 2
BITMAP
20
20
F8
20
20
ENDCHAR
STARTCHAR char44
ENCODING 44
SWIDTH 187 0
DWIDTH 3 0
BBX 2 2 0 -1
BITMAP
40
80
ENDCHAR
STARTCHAR char45
ENCODING 45
SWIDTH 375 0
DWIDTH 6 0
BBX 5 1 0 4
BITMAP
F8
ENDCHAR
STARTCHAR char46
ENCODING 46
SWIDTH 125 0
DWIDTH 2 0
BBX 1 1 0 0
BITMAP
80
ENDCHAR
STARTCHAR char47
ENCODING 47
SWIDTH 500 0
DWIDTH 8 0
BBX 7 7 0 2
BITMAP
02
04
08
10
20
40
80
ENDCHAR
STARTCHAR char48
ENCODING 48
SWIDTH 375 0
DWIDTH 6 0
BBX 5 9 0 0
BITMAP
70
88
88
88
88
88
88
88
70
ENDCHAR
STARTCHAR char49
ENCODING 49
SWIDTH 187 0
DWIDTH 3 0
BBX 2 9 0 0
BITMAP
40
C0
40
40
40
40
40
40
40
ENDCHAR
STARTCHAR char50
ENCODING 50
SWIDTH 375 0
DWIDTH 6 0
BBX 5 9 0 0
BITMAP
70
88
88
10
20
40
80
80
F8
ENDCHAR
STARTCHAR char51
ENCODING 51
SWIDTH 375 0
DWIDTH 6 0
BBX 5 9 0 0
BITMAP
70
88
08
08
30
08
08
88
70
ENDCHAR
STARTCHAR char52
ENCODING 52
SWIDTH 375 0
DWIDTH 6 0
BBX 5 9 0 0
BITMAP
10
30
50
90
F8
10
10
10
10
ENDCHAR
STARTCHAR char53
ENCODING 53
SWIDTH 375 0
DWIDTH 6 0
BBX 5 9 0 0
BITMAP
F8
80
80
F0
08
08
88
88
70
ENDCHAR
STARTCHAR char54
ENCODING 54
SWIDTH 375 0
DWIDTH 6 0
BBX 5 9 0 0
BITMAP
70
88
88
80
F0
88
88
88
70
ENDCHAR
STARTCHAR char55
ENCODING 55
SWIDTH 375 0
DWIDTH 6 0
BBX 5 9 0 0
BITMAP
F8
08
08
10
20
20
20
20
20
ENDCHAR
STARTCHAR char56
ENCODING 56
SWIDTH 375 0
DWIDTH 6 0
BBX 5 9 0 0
BITMAP
70
88
88
88
70
88
88
88
70
ENDCHAR
STARTCHAR char57
ENCODING 57
SWIDTH 375 0
DWIDTH 6 0
BBX 5 9 0 0
BITMAP
70
88
88
88
78
08
88
88
70
ENDCHAR
STARTCHAR char58
ENCODING 58
SWIDTH 125 0
DWIDTH 2 0
BBX 1 6 0 0
BITMAP
80
00
00
00
00
80
ENDCHAR
STARTCHAR char59
ENCODING 59
SWIDTH 187 0
DWIDTH 3 0
BBX 2 7 0 -1
BITMAP
40
00
00
00
00
40
80
ENDCHAR
STARTCHAR char60
ENCODING 60
SWIDTH 312 0
DWIDTH 5 0
BBX 4 7 0 0
BITMAP
10
20
40
80
40
20
10
ENDCHAR
STARTCHAR char61
ENCODING 61
SWIDTH 375 0
DWIDTH 6 0
BBX 5 3 0 3
BITMAP
F8
00
F8
ENDCHAR
STARTCHAR char62
ENCODING 62
SWIDTH 312 0
DWIDTH 5 0
BBX 4 7 0 0
BITMAP
80
40
20
10
20
40
80
ENDCHAR
STARTCHAR char63
ENCODING 63
SWIDTH 375 0
DWIDTH 6 0
BBX 5 9 0 0
BITMAP
70
88
88
08
10
20
20
00
20
ENDCHAR
STARTCHAR char64
ENCODING 64
SWIDTH 625 0
DWIDTH 10 0
BBX 9 10 0 0
BITMAP
3E00
4100
9C80
A280
9E80
A280
A280
9F80
4000
3C00
ENDCHAR
STARTCHAR char65
ENCODING 65
SWIDTH 437 0
DWIDTH 7 0
BBX 6 9 0 0
BITMAP
78
84
84
84
FC
84
84
84
84
ENDCHAR
STARTCHAR char66
ENCODING 66
SWIDTH 437 0
DWIDTH 7 0
BBX 6 9 0 0
BITMAP
F8
84
84
84
F8
84
84
84
F8
ENDCHAR
STARTCHAR char67
ENCODING 67
SWIDTH 437 0
DWIDTH 7 0
BBX 6 9 0 0
BITMAP
38
44
80
80
80
80
80
44
38
ENDCHAR
STARTCHAR char68
ENCODING 68
SWIDTH 437 0
DWIDTH 7 0
BBX 6 9 0 0
BITMAP
F0
88
84
84
84
84
84
88
F0
ENDCHAR
STARTCHAR char69
ENCODING 69
SWIDTH 375 0
DWIDTH 6 0
BBX 5 9 0 0
BITMAP
F8
80
80
80
F0
80
80
80
F8
ENDCHAR
STARTCHAR char70
ENCODING 70
SWIDTH 375 0
DWIDTH 6 0
BBX 5 9 0 0
BITMAP
F8
80
80
80
F0
80
80
80
80
ENDCHAR
STARTCHAR char71
ENCODING 71
SWIDTH 500 0
DWIDTH 8 0
BBX 7 9 0 0
BITMAP
3C
40
80
80
80
82
82
42
3E
ENDCHAR
STARTCHAR char72
ENCODING 72
SWIDTH 437 0
DWIDTH 7 0
BBX 6 9 0 0
BITMAP
84
84
84
84
FC
84
84
84
84
ENDCHAR
STARTCHAR char73
ENCODING 73
SWIDTH 125 0
DWIDTH 2 0
BBX 1 9 0 0
BITMAP
80
80
80
80
80
80
80
80
80
ENDCHAR
STARTCHAR char74
ENCODING 74
SWIDTH 375 0
DWIDTH 6 0
BBX 5 9 0 0
BITMAP
08
08
08
08
08
08
88
88
70
ENDCHAR
STARTCHAR char75
ENCODING 75
SWIDTH 437 0
DWIDTH 7 0
BBX 6 9 0 0
BITMAP
84
88
90
A0
C0
A0
90
88
84
ENDCHAR
STARTCHAR char76
ENCODING 76
SWIDTH 375 0
DWIDTH 6 0
BBX 5 9 0 0
BITMAP
80
80
80
80
80
80
80
80
F8
ENDCHAR
STARTCHAR char77
ENCODING 77
SWIDTH 500 0
DWIDTH 8 0
BBX 7 9 0 0
BITMAP
82
C6
AA
92
82
82
82
82
82
ENDCHAR
STARTCHAR char78
ENCODING 78
SWIDTH 437 0
DWIDTH 7 0
BBX 6 9 0 0
BITMAP
84
C4
A4
94
8C
84
84
84
84
ENDCHAR
STARTCHAR char79
ENCODING 79
SWIDTH 437 0
DWIDTH 7 0
BBX 6 9 0 0
BITMAP
78
84
84
84
84
84
84
84
78
ENDCHAR
STARTCHAR char80
ENCODING 80
SWIDTH 437 0
DWIDTH 7 0
BBX 6 9 0 0
BITMAP
F8
84
84
84
F8
80
80
80
80
ENDCHAR
STARTCHAR char81
ENCODING 81
SWIDTH 500 0
DWIDTH 8 0
BBX 7 9 0 0
BITMAP
38
44
82
82
82
82
8A
44
3A
ENDCHAR
STARTCHAR char82
ENCODING 82
SWIDTH 437 0
DWIDTH 7 0
BBX 6 9 0 0
BITMAP
F8
84
84
84
F8
84
84
84
84
ENDCHAR
STARTCHAR char83
ENCODING 83
SWIDTH 375 0
DWIDTH 6 0
BBX 5 9 0 0
BITMAP
70
88
80
80
70
08
08
88
70
ENDCHAR
STARTCHAR char84
ENCODING 84
SWIDTH 375 0
DWIDTH 6 0
BBX 5 9 0 0
BITMAP
F8
20
20
20
20
20
20
20
20
ENDCHAR
STARTCHAR char85
ENCODING 85
SWIDTH 375 0
DWIDTH 6 0
BBX 5 9 0 0
BITMAP
88
88
88
88
88
88
88
88
70
ENDCHAR
STARTCHAR char86
ENCODING 86
SWIDTH 375 0
DWIDTH 6 0
BBX 5 9 0 0
BITMAP
88
88
88
88
88
88
88
50
20
ENDCHAR
STARTCHAR char87
ENCODING 87
SWIDTH 375 0
DWIDTH 6 0
BBX 5 9 0 0
BITMAP
88
88
88
88
88
88
A8
D8
88
ENDCHAR
STARTCHAR char88
ENCODING 88
SWIDTH 375 0
DWIDTH 6 0
BBX 5 9 0 0
BITMAP
88
88
88
50
20
50
88
88
88
ENDCHAR
STARTCHAR char89
ENCODING 89
SWIDTH 375 0
DWIDTH 6 0
BBX 5 9 0 0
BITMAP
88
88
88
50
20
20
20
20
20
ENDCHAR
STARTCHAR char90
ENCODING 90
SWIDTH 375 0
DWIDTH 6 0
BBX 5 9 0 0
BITMAP
F8
08
08
10
20
40
80
80
F8
ENDCHAR
STARTCHAR char91
ENCODING 91
SWIDTH 250 0
DWIDTH 4 0
BBX 3 11 0 -2
BITMAP
E0
80
80
80
80
80
80
80
80
80
E0
ENDCHAR
STARTCHAR char92
ENCODING 92
SWIDTH 500 0
DWIDTH 8 0
BBX 7 7 0 1
BITMAP
80
40
20
10
08
04
02
ENDCHAR
STARTCHAR char93
ENCODING 93
SWIDTH 250 0
DWIDTH 4 0
BBX 3 11 0 -2
BITMAP
E0
20
20
20
20
20
20
20
20
20
E0
ENDCHAR
STARTCHAR char94
ENCODING 94
SWIDTH 250 0
DWIDTH 4 0
BBX 3 2 0 7
BITMAP
40
A0
ENDCHAR
STARTCHAR char95
ENCODING 95
SWIDTH 375 0
DWIDTH 6 0
BBX 5 1 0 0
BITMAP
F8
ENDCHAR
STARTCHAR char96
ENCODING 96
SWIDTH 187 0
DWIDTH 3 0
BBX 2 2 0 7
BITMAP
80
40
ENDCHAR
STARTCHAR char97
ENCODING 97
SWIDTH 375 0
DWIDTH 6 0
BBX 5 6 0 0
BITMAP
70
08
78
88
88
78
ENDCHAR
STARTCHAR char98
ENCODING 98
SWIDTH 375 0
DWIDTH 6 0
BBX 5 9 0 0
BITMAP
80
80
80
F0
88
88
88
88
F0
ENDCHAR
STARTCHAR char99
ENCODING 99
SWIDTH 375 0
DWIDTH 6 0
BBX 5 6 0 0
BITMAP
70
88
80
80
88
70
ENDCHAR
STARTCHAR char100
ENCODING 100
SWIDTH 375 0
DWIDTH 6 0
BBX 5 9 0 0
BITMAP
08
08
08
78
88
88
88
88
78
ENDCHAR
STARTCHAR char101
ENCODING 101
SWIDTH 375 0
DWIDTH 6 0
BBX 5 6 0 0
BITMAP
70
88
F8
80
88
70
ENDCHAR
STARTCHAR char102
ENCODING 102
SWIDTH 250 0
DWIDTH 4 0
BBX 3 9 0 0
BITMAP
20
40
40
E0
40
40
40
40
40
ENDCHAR
STARTCHAR char103
ENCODING 103
SWIDTH 375 0
DWIDTH 6 0
BBX 5 8 0 -2
BITMAP
78
88
88
88
88
78
08
70
ENDCHAR
STARTCHAR char104
ENCODING 104
SWIDTH 375 0
DWIDTH 6 0
BBX 5 9 0 0
BITMAP
80
80
80
F0
88
88
88
88
88
ENDCHAR
STARTCHAR char105
ENCODING 105
SWIDTH 125 0
DWIDTH 2 0
BBX 1 9 0 0
BITMAP
80
00
00
80
80
80
80
80
80
ENDCHAR
STARTCHAR char106
ENCODING 106
SWIDTH 375 0
DWIDTH 6 0
BBX 5 11 0 -2
BITMAP
08
00
00
18
08
08
08
08
88
88
70
ENDCHAR
STARTCHAR char107
ENCODING 107
SWIDTH 375 0
DWIDTH 6 0
BBX 5 9 0 0
BITMAP
80
80
80
90
A0
C0
A0
90
88
ENDCHAR
STARTCHAR char108
ENCODING 108
SWIDTH 125 0
DWIDTH 2 0
BBX 1 9 0 0
BITMAP
80
80
80
80
80
80
80
80
80
ENDCHAR
STARTCHAR char109
ENCODING 109
SWIDTH 500 0
DWIDTH 8 0
BBX 7 6 0 0
BITMAP
EC
92
92
92
92
92
ENDCHAR
STARTCHAR char110
ENCODING 110
SWIDTH 375 0
DWIDTH 6 0
BBX 5 6 0 0
BITMAP
F0
88
88
88
88
88
ENDCHAR
STARTCHAR char111
ENCODING 111
SWIDTH 375 0
DWIDTH 6 0
BBX 5 6 0 0
BITMAP
70
88
88
88
88
70
ENDCHAR
STARTCHAR char112
ENCODING 112
SWIDTH 375 0
DWIDTH 6 0
BBX 5 8 0 -2
BITMAP
F0
88
88
88
88
F0
80
80
ENDCHAR
STARTCHAR char113
ENCODING 113
SWIDTH 375 0
DWIDTH 6 0
BBX 5 8 0 -2
BITMAP
78
88
88
88
88
78
08
08
ENDCHAR
STARTCHAR char114
ENCODING 114
SWIDTH 375 0
DWIDTH 6 0
BBX 5 6 0 0
BITMAP
F0
88
80
80
80
80
ENDCHAR
STARTCHAR char115
ENCODING 115
SWIDTH 375 0
DWIDTH 6 0
BBX 5 6 0 0
BITMAP
70
80
F0
08
88
70
ENDCHAR
STARTCHAR char116
ENCODING 116
SWIDTH 250 0
DWIDTH 4 0
BBX 3 9 0 0
BITMAP
40
40
40
E0
40
40
40
40
20
ENDCHAR
STARTCHAR char117
ENCODING 117
SWIDTH 375 0
DWIDTH 6 0
BBX 5 6 0 0
BITMAP
88
88
88
88
88
70
ENDCHAR
STARTCHAR char118
ENCODING 118
SWIDTH 375 0
DWIDTH 6 0
BBX 5 6 0 0
BITMAP
88
88
88
88
50
20
ENDCHAR
STARTCHAR char119
ENCODING 119
SWIDTH 500 0
DWIDTH 8 0
BBX 7 6 0 0
BITMAP
92
92
92
92
92
6C
ENDCHAR
STARTCHAR char120
ENCODING 120
SWIDTH 312 0
DWIDTH 5 0
BBX 4 6 0 0
BITMAP
90
90
60
60
90
90
ENDCHAR
STARTCHAR char121
ENCODING 121
SWIDTH 375 0
DWIDTH 6 0
BBX 5 8 0 -2
BITMAP
88
88
88
88
88
78
08
70
ENDCHAR
STARTCHAR char122
ENCODING 122
SWIDTH 312 0
DWIDTH 5 0
BBX 4 6 0 0
BITMAP
F0
10
20
40
80
F0
ENDCHAR
STARTCHAR char123
ENCODING 123
SWIDTH 312 0
DWIDTH 5 0
BBX 4 11 0 -2
BITMAP
30
40
40
40
40
80
40
40
40
40
30
ENDCHAR
STARTCHAR char124
ENCODING 124
SWIDTH 125 0
DWIDTH 2 0
BBX 1 10 0 -1
BITMAP
80
80
80
80
80
80
80
80
80
80
ENDCHAR
STARTCHAR char125
ENCODING 125
SWIDTH 312 0
DWIDTH 5 0
BBX 4 11 0 -2
BITMAP
C0
20
20
20
20
10
20
20
20
20
C0
ENDCHAR
STARTCHAR char126
ENCODING 126
SWIDTH 500 0
DWIDTH 8 0
BBX 7 4 0 5
BITMAP
60
92
92
0C
ENDCHAR
ENDFONT
